<svg xmlns="http://www.w3.org/2000/svg">
<symbol id="location" width="1em" height="1em" viewBox="0 0 31 31" fill="none">
<path d="M15.5 16.7917C17.6401 16.7917 19.375 15.0568 19.375 12.167C19.375 10.7766 17.6401 9.04167 15.5 9.04167C13.3599 9.04167 11.625 10.7766 11.625 12.9167C11.625 15.0568 13.3599 16.7917 15.5 16.7917Z" stroke="currentColor" stroke-width="2" stroke-linecap="round" stroke-linejoin="round"/>
<path d="M15.5 2.58333C12.7594 2.58333 10.1311 3.67202 8.19319 5.6099C6.25531 7.54777 5.16663 10.1761 5.16663 12.9167C5.16663 15.3605 5.68588 16.9596 7.10413 18.7292L15.5 28.4167L23.8958 18.7292C25.314 16.9596 25.8333 15.3605 25.8333 12.9167C25.8333 10.1761 24.7446 7.54777 22.8067 5.6099C20.8689 3.67202 18.2405 2.58333 15.5 2.58333V2.58333Z" stroke="currentColor" stroke-width="2" stroke-linecap="round" stroke-linejoin="round"/>
</symbol>
<symbol id="quote-left" width="1em" height="1em" viewBox="0 0 24 24" fill="none">
<path d="M6.50002 10C6.27702 10 6.06302 10.034 5.85002 10.065C5.91902 9.833 5.99002 9.597 6.10402 9.385C6.21802 9.077 6.39602 8.81 6.57302 8.541C6.72102 8.25 6.98202 8.053 7.17402 7.804C7.37502 7.562 7.64902 7.401 7.86602 7.2C8.07902 6.99 8.35802 6.885 8.58002 6.737C8.81202 6.604 9.01402 6.457 9.23002 6.387L9.76902 6.165L10.243 5.968L9.75802 4.03L9.16102 4.174C8.97002 4.222 8.73702 4.278 8.47202 4.345C8.20102 4.395 7.91202 4.532 7.59002 4.657C7.27202 4.799 6.90402 4.895 6.56202 5.123C6.21802 5.341 5.82102 5.523 5.47102 5.815C5.13202 6.116 4.72302 6.377 4.42102 6.76C4.09102 7.118 3.76502 7.494 3.51202 7.922C3.21902 8.33 3.02002 8.778 2.81002 9.221C2.62002 9.664 2.46702 10.117 2.34202 10.557C2.10502 11.439 1.99902 12.277 1.95802 12.994C1.92402 13.712 1.94402 14.309 1.98602 14.741C2.00102 14.945 2.02902 15.143 2.04902 15.28L2.07402 15.448L2.10002 15.442C2.27788 16.2728 2.68733 17.0363 3.28099 17.6442C3.87465 18.252 4.62826 18.6794 5.45466 18.8768C6.28106 19.0743 7.14647 19.0337 7.95078 18.7598C8.75509 18.486 9.46543 17.99 9.99963 17.3293C10.5338 16.6686 10.8701 15.8701 10.9694 15.0263C11.0688 14.1825 10.9273 13.3278 10.5612 12.561C10.1951 11.7943 9.61936 11.1469 8.90068 10.6936C8.18199 10.2404 7.34968 9.99994 6.50002 10ZM17.5 10C17.277 10 17.063 10.034 16.85 10.065C16.919 9.833 16.99 9.597 17.104 9.385C17.218 9.077 17.396 8.81 17.573 8.541C17.721 8.25 17.982 8.053 18.174 7.804C18.375 7.562 18.649 7.401 18.866 7.2C19.079 6.99 19.358 6.885 19.58 6.737C19.812 6.604 20.014 6.457 20.23 6.387L20.769 6.165L21.243 5.968L20.758 4.03L20.161 4.174C19.97 4.222 19.737 4.278 19.472 4.345C19.201 4.395 18.912 4.532 18.59 4.657C18.273 4.8 17.904 4.895 17.562 5.124C17.218 5.342 16.821 5.524 16.471 5.816C16.132 6.117 15.723 6.378 15.421 6.76C15.091 7.118 14.765 7.494 14.512 7.922C14.219 8.33 14.02 8.778 13.81 9.221C13.62 9.664 13.467 10.117 13.342 10.557C13.105 11.439 12.999 12.277 12.958 12.994C12.924 13.712 12.944 14.309 12.986 14.741C13.001 14.945 13.029 15.143 13.049 15.28L13.074 15.448L13.1 15.442C13.2779 16.2728 13.6873 17.0363 14.281 17.6442C14.8746 18.252 15.6283 18.6794 16.4547 18.8768C17.2811 19.0743 18.1465 19.0337 18.9508 18.7598C19.7551 18.486 20.4654 17.99 20.9996 17.3293C21.5338 16.6686 21.8701 15.8701 21.9694 15.0263C22.0688 14.1825 21.9273 13.3278 21.5612 12.561C21.1951 11.7943 20.6194 11.1469 19.9007 10.6936C19.182 10.2404 18.3497 9.99994 17.5 10Z" fill="currentColor"/>
</symbol>
<symbol id="quote-right" width="1em" height="1em" viewBox="0 0 24 24" fill="none">
<path d="M21.9501 8.721L21.9251 8.553L21.8991 8.559C21.7214 7.72804 21.312 6.96437 20.7184 6.35635C20.1248 5.74833 19.3711 5.32082 18.5446 5.12328C17.7182 4.92574 16.8527 4.96625 16.0483 5.24011C15.2438 5.51397 14.5334 6.00999 13.9992 6.67079C13.4649 7.33159 13.1287 8.13015 13.0294 8.97408C12.9301 9.818 13.0717 10.6728 13.438 11.4396C13.8042 12.2063 14.3801 12.8537 15.099 13.3068C15.8178 13.76 16.6503 14.0003 17.5001 14C17.7231 14 17.9371 13.966 18.1501 13.935C18.0811 14.167 18.0101 14.403 17.8961 14.615C17.7821 14.923 17.6041 15.19 17.4271 15.459C17.2791 15.75 17.0181 15.947 16.8261 16.196C16.6251 16.438 16.3511 16.599 16.1341 16.8C15.9211 17.01 15.6421 17.115 15.4201 17.263C15.1881 17.396 14.9861 17.543 14.7701 17.613L14.2311 17.835L13.7571 18.032L14.2411 19.971L14.8381 19.827C15.0291 19.779 15.2621 19.723 15.5271 19.656C15.7981 19.606 16.0871 19.469 16.4091 19.344C16.7261 19.201 17.0951 19.106 17.4371 18.877C17.7811 18.659 18.1781 18.477 18.5281 18.185C18.8671 17.884 19.2761 17.623 19.5781 17.241C19.9081 16.883 20.2341 16.507 20.4871 16.079C20.7801 15.671 20.9791 15.223 21.1891 14.78C21.3791 14.337 21.5321 13.884 21.6571 13.444C21.8941 12.562 22.0001 11.724 22.0411 11.007C22.0751 10.289 22.0551 9.692 22.0131 9.26C21.999 9.07959 21.978 8.89979 21.9501 8.721ZM10.9501 8.721L10.9251 8.553L10.8991 8.559C10.7214 7.72804 10.312 6.96437 9.71839 6.35635C9.12477 5.74833 8.37112 5.32082 7.54465 5.12328C6.71818 4.92574 5.85267 4.96625 5.04826 5.24011C4.24385 5.51397 3.53342 6.00999 2.99917 6.67079C2.46492 7.33159 2.12869 8.13015 2.02938 8.97408C1.93006 9.818 2.07173 10.6728 2.43799 11.4396C2.80424 12.2063 3.38012 12.8537 4.09898 13.3068C4.81784 13.76 5.6503 14.0003 6.50005 14C6.72305 14 6.93705 13.966 7.15005 13.935C7.08105 14.167 7.01005 14.403 6.89605 14.615C6.78205 14.923 6.60405 15.19 6.42705 15.459C6.27905 15.75 6.01805 15.947 5.82605 16.196C5.62505 16.438 5.35105 16.599 5.13405 16.8C4.92105 17.01 4.64205 17.115 4.42005 17.263C4.18805 17.396 3.98605 17.543 3.77005 17.613L3.23105 17.835C2.93005 17.958 2.75805 18.03 2.75805 18.03L3.24205 19.969L3.83905 19.825C4.03005 19.777 4.26305 19.721 4.52805 19.654C4.79905 19.604 5.08805 19.467 5.41005 19.342C5.72705 19.199 6.09605 19.104 6.43805 18.875C6.78205 18.657 7.17905 18.475 7.52905 18.183C7.86805 17.882 8.27705 17.621 8.57905 17.239C8.90905 16.881 9.23505 16.505 9.48805 16.077C9.78105 15.669 9.98005 15.221 10.1901 14.778C10.3801 14.335 10.5331 13.882 10.6581 13.442C10.8951 12.56 11.0011 11.722 11.0421 11.005C11.0761 10.287 11.0561 9.69 11.0141 9.258C10.9991 9.0783 10.9778 8.89918 10.9501 8.721Z" fill="currentColor"/>
</symbol>
<symbol id="user" width="1em" height="1em" viewBox="0 0 26 26" fill="none">
<path d="M21.7979 19.3883C21.3189 18.2538 20.6239 17.2232 19.7514 16.3541C18.8816 15.4825 17.8513 14.7875 16.7173 14.3076C16.7071 14.3025 16.6969 14.3 16.6868 14.2949C18.2686 13.1523 19.2969 11.2912 19.2969 9.19141C19.2969 5.71289 16.4786 2.89453 13.0001 2.89453C9.52155 2.89453 6.70319 5.71289 6.70319 9.19141C6.70319 11.2912 7.73151 13.1523 9.31334 14.2975C9.30319 14.3025 9.29303 14.3051 9.28288 14.3102C8.14538 14.79 7.12467 15.4781 6.2487 16.3566C5.37706 17.2264 4.68211 18.2568 4.20221 19.3908C3.73076 20.501 3.4765 21.6913 3.45319 22.8973C3.45251 22.9244 3.45726 22.9513 3.46717 22.9766C3.47707 23.0018 3.49193 23.0248 3.51086 23.0442C3.52979 23.0636 3.55241 23.079 3.57739 23.0895C3.60237 23.1001 3.62921 23.1055 3.65631 23.1055H5.17975C5.29147 23.1055 5.38034 23.0166 5.38288 22.9074C5.43366 20.9473 6.22077 19.1115 7.61217 17.7201C9.05182 16.2805 10.9637 15.4883 13.0001 15.4883C15.0364 15.4883 16.9483 16.2805 18.388 17.7201C19.7794 19.1115 20.5665 20.9473 20.6173 22.9074C20.6198 23.0191 20.7087 23.1055 20.8204 23.1055H22.3438C22.3709 23.1055 22.3978 23.1001 22.4227 23.0895C22.4477 23.079 22.4703 23.0636 22.4893 23.0442C22.5082 23.0248 22.5231 23.0018 22.533 22.9766C22.5429 22.9513 22.5476 22.9244 22.5469 22.8973C22.5215 21.6836 22.2702 20.5029 21.7979 19.3883ZM13.0001 13.5586C11.8346 13.5586 10.7378 13.1041 9.91256 12.2789C9.08737 11.4537 8.63288 10.3568 8.63288 9.19141C8.63288 8.02598 9.08737 6.9291 9.91256 6.10391C10.7378 5.27871 11.8346 4.82422 13.0001 4.82422C14.1655 4.82422 15.2624 5.27871 16.0876 6.10391C16.9128 6.9291 17.3673 8.02598 17.3673 9.19141C17.3673 10.3568 16.9128 11.4537 16.0876 12.2789C15.2624 13.1041 14.1655 13.5586 13.0001 13.5586Z" fill="currentColor"/>
</symbol>
<symbol id="calender" width="1em" height="1em" viewBox="0 0 24 24" fill="none">
<path d="M19 4H17V3C17 2.73478 16.8946 2.48043 16.7071 2.29289C16.5196 2.10536 16.2652 2 16 2C15.7348 2 15.4804 2.10536 15.2929 2.29289C15.1054 2.48043 15 2.73478 15 3V4H9V3C9 2.73478 8.89464 2.48043 8.70711 2.29289C8.51957 2.10536 8.26522 2 8 2C7.73478 2 7.48043 2.10536 7.29289 2.29289C7.10536 2.48043 7 2.73478 7 3V4H5C4.20435 4 3.44129 4.31607 2.87868 4.87868C2.31607 5.44129 2 6.20435 2 7V19C2 19.7956 2.31607 20.5587 2.87868 21.1213C3.44129 21.6839 4.20435 22 5 22H19C19.7956 22 20.5587 21.6839 21.1213 21.1213C21.6839 20.5587 22 19.7956 22 19V7C22 6.20435 21.6839 5.44129 21.1213 4.87868C20.5587 4.31607 19.7956 4 19 4ZM20 19C20 19.2652 19.8946 19.5196 19.7071 19.7071C19.5196 19.8946 19.2652 20 19 20H5C4.73478 20 4.48043 19.8946 4.29289 19.7071C4.10536 19.5196 4 19.2652 4 19V12H20V19ZM20 10H4V7C4 6.73478 4.10536 6.48043 4.29289 6.29289C4.48043 6.10536 4.73478 6 5 6H7V7C7 7.26522 7.10536 7.51957 7.29289 7.70711C7.48043 7.89464 7.73478 8 8 8C8.26522 8 8.51957 7.89464 8.70711 7.70711C8.89464 7.51957 9 7.26522 9 7V6H15V7C15 7.26522 15.1054 7.51957 15.2929 7.70711C15.4804 7.89464 15.7348 8 16 8C16.2652 8 16.5196 7.89464 16.7071 7.70711C16.8946 7.51957 17 7.26522 17 7V6H19C19.2652 6 19.5196 6.10536 19.7071 6.29289C19.8946 6.48043 20 6.73478 20 7V10Z" fill="currentColor"/>
</symbol>
<symbol id="star-outlined" width="1em" height="1em" viewBox="0 0 24 24" fill="none">
<path d="M11.0741 2.633C11.3941 1.789 12.6051 1.789 12.9261 2.633L14.9961 8.367C15.1411 8.747 15.5101 9 15.9221 9H21.0091C21.9491 9 22.3591 10.17 21.6201 10.743L18.0001 14C17.8379 14.1247 17.7194 14.2975 17.6616 14.4937C17.6037 14.6898 17.6095 14.8993 17.6781 15.092L19.0001 20.695C19.3221 21.595 18.2801 22.368 17.4921 21.814L12.5751 18.694C12.4067 18.5757 12.2059 18.5122 12.0001 18.5122C11.7943 18.5122 11.5935 18.5757 11.4251 18.694L6.50808 21.814C5.72108 22.368 4.67808 21.594 5.00008 20.695L6.32208 15.092C6.39066 14.8993 6.39643 14.6898 6.33859 14.4937C6.28074 14.2975 6.16223 14.1247 6.00008 14L2.38008 10.743C1.64008 10.17 2.05208 9 2.99008 9H8.07708C8.27737 9.00067 8.47314 8.9405 8.63849 8.82747C8.80385 8.71444 8.93098 8.55387 9.00308 8.367L11.0731 2.633H11.0741Z" stroke="currentColor" stroke-width="2.5" stroke-linecap="round" stroke-linejoin="round"/>
</symbol>
<symbol id="star-filled" width="1em" height="1em" viewBox="0 0 30 30" fill="none">
<path d="M27.0111 11.3438L19.5726 10.2627L16.2474 3.5215C16.1566 3.33692 16.0072 3.18751 15.8226 3.09669C15.3597 2.86817 14.7972 3.0586 14.5658 3.5215L11.2406 10.2627L3.8021 11.3438C3.59702 11.3731 3.40952 11.4697 3.26597 11.6162C3.09242 11.7946 2.99679 12.0346 3.00008 12.2834C3.00338 12.5323 3.10533 12.7697 3.28355 12.9434L8.66538 18.1904L7.3939 25.5996C7.36408 25.772 7.38316 25.9492 7.44895 26.1113C7.51475 26.2734 7.62465 26.4138 7.76617 26.5165C7.9077 26.6193 8.07519 26.6804 8.24966 26.6928C8.42413 26.7053 8.5986 26.6686 8.75327 26.5869L15.4066 23.0889L22.0599 26.5869C22.2416 26.6836 22.4525 26.7158 22.6546 26.6807C23.1644 26.5928 23.5072 26.1094 23.4193 25.5996L22.1478 18.1904L27.5296 12.9434C27.6761 12.7998 27.7728 12.6123 27.8021 12.4072C27.8812 11.8945 27.5238 11.4199 27.0111 11.3438Z" fill="currentColor"/>
</symbol>
</svg>
